<svg xmlns="http://www.w3.org/2000/svg" width="117.305" height="104.002" viewBox="0 0 117.305 104.002">
  <g id="Kendo_UI_Certification_badge" transform="translate(-218 -226.542)">
    <rect id="Rectangle_30594" data-name="Rectangle 30594" width="73.54" height="73.54" rx="8" transform="translate(224.652 278.543) rotate(-45)" fill="#f56147"/>
    <path id="Path_47121" data-name="Path 47121" d="M309.57,334.888H243.735L218,308.725H335.3Z" transform="translate(0 -15.235)" fill="#373a3e"/>
    <g id="Progress_logo" transform="translate(237.325 296.203)">
      <path id="Path_37601" data-name="Path 37601" d="M250.026,314.566h0V319a.348.348,0,0,1-.156.267l-.148.089-1.105.638-.751.437-.156.09v-4.793l-4.154-2.4,1.974-1.136.178-.1a.329.329,0,0,1,.311,0l2.731,1.58,1.261.727ZM246.8,316.25l-.853-.49-1.988-1.149a.331.331,0,0,0-.312,0l-1.765,1.022-.156.091,3,1.727v3.466l1.766-1.016.156-.09a.345.345,0,0,0,.156-.267Zm-5.075,2.931,2.078,1.2v-2.4Z" transform="translate(-241.723 -312.056)" fill="#5ce500"/>
      <path id="Path_37602" data-name="Path 37602" d="M257.011,314.919h-2.263v6.128h1v-2.4h1.268c1.373,0,2.129-.668,2.129-1.885,0-.556-.206-1.839-2.137-1.839m1.113,1.848c0,.69-.356.972-1.239.972h-1.127v-1.923h1.268c.742.007,1.106.311,1.1.948m4.014-.186.074.037-.17.908-.119-.038a.993.993,0,0,0-.288-.045c-.935,0-1.017.749-1.017,1.655v1.951h-.928v-4.5h.868v.542a1.2,1.2,0,0,1,.907-.6,1.248,1.248,0,0,1,.675.1m2.285-.126a1.974,1.974,0,0,0-1.7.809,2.713,2.713,0,0,0-.454,1.543,2.106,2.106,0,0,0,2.151,2.337,2.144,2.144,0,0,0,2.152-2.374,2.544,2.544,0,0,0-.52-1.611,2.052,2.052,0,0,0-1.632-.7m0,3.858c-.727,0-1.18-.577-1.18-1.514s.454-1.528,1.18-1.528,1.188.586,1.188,1.506c.007.948-.454,1.536-1.188,1.536m9.965-3.732.074.037-.171.907-.119-.037a.99.99,0,0,0-.288-.045c-.934,0-1.017.75-1.017,1.655v1.951h-.927v-4.506h.868v.542a1.2,1.2,0,0,1,.907-.6,1.248,1.248,0,0,1,.675.1m3.331,3.02-.015.052a.985.985,0,0,1-1.017.667,1.166,1.166,0,0,1-1.2-1.13.887.887,0,0,1,0-.094h3.183l.015-.09a1.85,1.85,0,0,0,.007-.356v-.082a2.02,2.02,0,0,0-2.04-2.115,1.926,1.926,0,0,0-1.625.779,2.691,2.691,0,0,0-.482,1.567,2.125,2.125,0,0,0,2.151,2.322,1.839,1.839,0,0,0,1.929-1.425l.03-.1h-.935Zm-2.2-1.312a1.082,1.082,0,0,1,1.113-1.017,1.061,1.061,0,0,1,1.091,1.017Zm-5.276-1.365a1.573,1.573,0,0,0-1.2-.468,2.093,2.093,0,0,0-1.988,2.315,2.06,2.06,0,0,0,1.988,2.3,1.57,1.57,0,0,0,1.158-.475c0,.2-.008.386-.015.468-.051.742-.408,1.091-1.12,1.091-.386,0-.838-.141-.92-.519l-.023-.09h-.918l.015.126c.1.794.794,1.284,1.818,1.284a1.888,1.888,0,0,0,1.848-.979,3.2,3.2,0,0,0,.222-1.336v-4.089h-.883Zm-1.135,3.316c-.327,0-1.083-.148-1.083-1.514,0-.9.423-1.454,1.105-1.454.527,0,1.091.378,1.091,1.454-.007.948-.423,1.514-1.113,1.514m13.883-.55c0,.713-.594,1.439-1.922,1.439-1.172,0-1.87-.512-1.966-1.432l-.015-.1H280l.015.074c.111.556.638.668,1.061.668.468,0,.957-.148.957-.572,0-.215-.141-.363-.408-.445-.165-.045-.363-.1-.571-.165-.364-.1-.735-.206-.965-.288a1.182,1.182,0,0,1-.9-1.091c0-.907.883-1.313,1.758-1.313,1.172,0,1.773.438,1.855,1.351l.007.1h-.9l-.015-.074c-.089-.519-.608-.6-.912-.6-.26,0-.868.045-.868.475,0,.193.171.341.512.438.1.029.252.067.437.111.363.1.824.216,1.053.289a1.131,1.131,0,0,1,.861,1.127m4.3.015c0,.713-.594,1.439-1.922,1.439-1.173,0-1.87-.512-1.966-1.432l-.007-.1h.92l.007.067c.112.556.639.668,1.061.668.468,0,.957-.148.957-.572,0-.215-.141-.363-.408-.445-.165-.045-.364-.1-.572-.165-.363-.1-.734-.206-.965-.288a1.184,1.184,0,0,1-.9-1.091c0-.907.883-1.313,1.759-1.313,1.172,0,1.773.438,1.848,1.351l.007.1h-.9l-.015-.074c-.09-.519-.609-.6-.913-.6-.259,0-.868.045-.868.475,0,.193.17.341.512.438.1.029.253.067.438.111.363.1.824.216,1.053.289a1.142,1.142,0,0,1,.868,1.142" transform="translate(-244.138 -312.587)" fill="#fff"/>
      <path id="Path_37603" data-name="Path 37603" d="M295.451,317.205a.639.639,0,1,1,.631-.648v.007a.625.625,0,0,1-.61.639h-.021m0-1.172a.53.53,0,1,0,.52.542v-.008a.524.524,0,0,0-.5-.535h-.023m-.074.653v.215h-.185v-.672h.311a.216.216,0,0,1,.244.184l0,.016v.037a.2.2,0,0,1-.126.2l.156.237h-.215l-.126-.215Zm.1-.3h-.1v.148h.1a.082.082,0,0,0,.089-.06v-.013a.082.082,0,0,0-.074-.082.022.022,0,0,1-.015.007" transform="translate(-251.564 -312.774)" fill="#fff"/>
    </g>
    <g id="Kendo_type" data-name="Kendo type" transform="translate(282.369 298.076)">
      <g id="Group_18895" data-name="Group 18895" transform="translate(0 0)">
        <path id="Path_47122" data-name="Path 47122" d="M297.817,314.8v2.762l2.8-2.762h1l-3.055,2.974,3.146,3.237h-1.031l-2.863-2.924v2.924h-.8V314.8Z" transform="translate(-297.018 -314.438)" fill="#f56147"/>
        <path id="Path_47123" data-name="Path 47123" d="M306.324,321.081a1.7,1.7,0,0,1-.618.3,2.9,2.9,0,0,1-.749.091,2.072,2.072,0,0,1-1.568-.622,2.318,2.318,0,0,1-.6-1.674,2.58,2.58,0,0,1,.556-1.71,1.794,1.794,0,0,1,1.447-.667,1.626,1.626,0,0,1,1.376.607,2.544,2.544,0,0,1,.465,1.588v.274h-3.086a1.545,1.545,0,0,0,.464,1.158,1.527,1.527,0,0,0,1.039.38,2.074,2.074,0,0,0,.67-.1,2.225,2.225,0,0,0,.6-.323Zm-1.513-3.632a1.138,1.138,0,0,0-.776.3,1.505,1.505,0,0,0-.443.921H305.9a1.544,1.544,0,0,0-.282-.859A.923.923,0,0,0,304.811,317.45Z" transform="translate(-298.089 -314.809)" fill="#f56147"/>
        <path id="Path_47124" data-name="Path 47124" d="M308.468,321.384v-4.491h.758v.566a1.674,1.674,0,0,1,.54-.46,1.549,1.549,0,0,1,.781-.2,1.482,1.482,0,0,1,1.164.455,1.7,1.7,0,0,1,.408,1.183v2.944h-.758v-2.815a1.17,1.17,0,0,0-.243-.762.911.911,0,0,0-.749-.3,1.143,1.143,0,0,0-.708.237,1.229,1.229,0,0,0-.436.6v3.037Z" transform="translate(-299.141 -314.809)" fill="#f56147"/>
        <path id="Path_47125" data-name="Path 47125" d="M317.121,320.931v-.525a1.4,1.4,0,0,1-.506.429,1.563,1.563,0,0,1-.758.187,1.767,1.767,0,0,1-1.5-.693,2.847,2.847,0,0,1,0-3.282,1.76,1.76,0,0,1,1.5-.7,1.555,1.555,0,0,1,.758.187,1.4,1.4,0,0,1,.506.429v-2.61h.759v6.576Zm0-1.335v-1.821a1.326,1.326,0,0,0-.488-.542,1.242,1.242,0,0,0-.67-.2,1.2,1.2,0,0,0-1.006.471,2.081,2.081,0,0,0,0,2.357,1.2,1.2,0,0,0,1.006.471,1.236,1.236,0,0,0,.67-.2A1.323,1.323,0,0,0,317.121,319.6Z" transform="translate(-300.135 -314.355)" fill="#f56147"/>
        <path id="Path_47126" data-name="Path 47126" d="M323.874,319.138a2.46,2.46,0,0,1-.575,1.68,2.009,2.009,0,0,1-2.973,0,2.761,2.761,0,0,1,0-3.359,2.009,2.009,0,0,1,2.973,0A2.459,2.459,0,0,1,323.874,319.138Zm-.758,0a1.97,1.97,0,0,0-.346-1.2,1.2,1.2,0,0,0-1.909,0,2.253,2.253,0,0,0,0,2.4,1.2,1.2,0,0,0,1.909,0A1.972,1.972,0,0,0,323.116,319.138Z" transform="translate(-301.233 -314.809)" fill="#f56147"/>
        <path id="Path_47127" data-name="Path 47127" d="M330.592,321.1a2.449,2.449,0,0,1-1.74-.643,2.5,2.5,0,0,1-.688-1.917V314.8h.8v3.652a2.087,2.087,0,0,0,.444,1.467,1.726,1.726,0,0,0,2.38,0,2.086,2.086,0,0,0,.444-1.467V314.8h.8v3.754a2.308,2.308,0,0,1-2.438,2.549Z" transform="translate(-302.792 -314.438)" fill="#f56147"/>
        <path id="Path_47128" data-name="Path 47128" d="M336.315,314.8v6.211h-.8V314.8Z" transform="translate(-304.155 -314.438)" fill="#f56147"/>
      </g>
      <path id="Path_37603-2" data-name="Path 37603" d="M337.665,316.1a.639.639,0,1,1,.631-.648v.007a.625.625,0,0,1-.61.639h-.021m0-1.172a.53.53,0,1,0,.52.541v-.007a.524.524,0,0,0-.5-.535h-.023m-.074.652v.215h-.185v-.672h.311a.216.216,0,0,1,.244.184l0,.016v.037a.2.2,0,0,1-.126.2l.156.237h-.215l-.126-.215Zm.1-.3h-.1v.148h.1a.082.082,0,0,0,.089-.059v-.013a.082.082,0,0,0-.074-.082.022.022,0,0,1-.015.007" transform="translate(-304.434 -314.442)" fill="#f56147"/>
    </g>
    <g id="Group_18896" data-name="Group 18896" transform="translate(248.468 306.857)">
      <path id="Path_47129" data-name="Path 47129" d="M255.4,330.308a4.561,4.561,0,0,1,1.192-3.3,3.919,3.919,0,0,1,2.945-1.242,4.182,4.182,0,0,1,1.35.2,3.194,3.194,0,0,1,1.02.56v1.182A3.531,3.531,0,0,0,260.8,327a3.419,3.419,0,0,0-1.25-.223,2.74,2.74,0,0,0-2.177.974,4.321,4.321,0,0,0,0,5.12,2.74,2.74,0,0,0,2.177.973,3.419,3.419,0,0,0,1.25-.223,3.529,3.529,0,0,0,1.105-.714v1.181a3.178,3.178,0,0,1-1.02.56,4.183,4.183,0,0,1-1.35.2,3.919,3.919,0,0,1-2.945-1.242A4.558,4.558,0,0,1,255.4,330.308Z" transform="translate(-255.401 -325.252)" fill="#fff"/>
      <path id="Path_47130" data-name="Path 47130" d="M269.459,334.842a2.417,2.417,0,0,1-.877.431,4.127,4.127,0,0,1-1.062.129,2.942,2.942,0,0,1-2.226-.883,3.288,3.288,0,0,1-.848-2.377,3.662,3.662,0,0,1,.79-2.428,2.547,2.547,0,0,1,2.054-.948,2.309,2.309,0,0,1,1.953.862,3.6,3.6,0,0,1,.661,2.255v.388h-4.381a2.19,2.19,0,0,0,.658,1.645,2.163,2.163,0,0,0,1.474.539,2.961,2.961,0,0,0,.952-.143,3.191,3.191,0,0,0,.851-.46Zm-2.148-5.157a1.615,1.615,0,0,0-1.1.431,2.143,2.143,0,0,0-.629,1.307h3.275a2.2,2.2,0,0,0-.4-1.221A1.316,1.316,0,0,0,267.311,329.686Z" transform="translate(-257.078 -325.807)" fill="#fff"/>
      <path id="Path_47131" data-name="Path 47131" d="M275.78,328.867v1.105a.953.953,0,0,0-.323-.129,1.786,1.786,0,0,0-.4-.043,1.454,1.454,0,0,0-.912.316,1.626,1.626,0,0,0-.567.876v4.281H272.5V328.9h1.078v.833a1.76,1.76,0,0,1,.625-.683,1.692,1.692,0,0,1,.955-.28,2.195,2.195,0,0,1,.367.029A.947.947,0,0,1,275.78,328.867Z" transform="translate(-258.572 -325.807)" fill="#fff"/>
      <path id="Path_47132" data-name="Path 47132" d="M279.361,329.461v5.459h-1.078v-5.459h-1.335v-.919h1.335v-1.681h1.078v1.681h1.479v.919Z" transform="translate(-259.395 -325.454)" fill="#fff"/>
      <path id="Path_47133" data-name="Path 47133" d="M284.074,326.405a.707.707,0,0,1-.7.689.65.65,0,0,1-.476-.208.662.662,0,0,1-.206-.481.7.7,0,0,1,.682-.689.675.675,0,0,1,.49.2A.654.654,0,0,1,284.074,326.405Zm-.143,1.925v6.378h-1.077V328.33Z" transform="translate(-260.461 -325.242)" fill="#fff"/>
      <path id="Path_47134" data-name="Path 47134" d="M289.183,325.277v.977a.844.844,0,0,0-.323-.136,1.753,1.753,0,0,0-.351-.036,1.015,1.015,0,0,0-.762.294,1.2,1.2,0,0,0-.288.869v.977H288.9v.919H287.46V334.6h-1.077v-5.459h-1.078v-.919h1.078v-1.063a1.891,1.891,0,0,1,1.963-2.025,2.555,2.555,0,0,1,.455.036A2.262,2.262,0,0,1,289.183,325.277Zm2.169,1.02a.708.708,0,0,1-.7.689.651.651,0,0,1-.476-.208.662.662,0,0,1-.206-.481.7.7,0,0,1,.682-.689.675.675,0,0,1,.49.2A.655.655,0,0,1,291.353,326.3Zm-.144,1.925V334.6h-1.077v-6.378Z" transform="translate(-260.945 -325.134)" fill="#fff"/>
      <path id="Path_47135" data-name="Path 47135" d="M298.922,334.842a2.421,2.421,0,0,1-.876.431,4.139,4.139,0,0,1-1.063.129,2.942,2.942,0,0,1-2.226-.883,3.287,3.287,0,0,1-.847-2.377,3.662,3.662,0,0,1,.79-2.428,2.547,2.547,0,0,1,2.054-.948,2.31,2.31,0,0,1,1.953.862,3.6,3.6,0,0,1,.661,2.255v.388h-4.381a2.19,2.19,0,0,0,.658,1.645,2.167,2.167,0,0,0,1.474.539,2.956,2.956,0,0,0,.952-.143,3.168,3.168,0,0,0,.851-.46Zm-2.147-5.157a1.614,1.614,0,0,0-1.1.431,2.14,2.14,0,0,0-.63,1.307h3.276a2.191,2.191,0,0,0-.4-1.221A1.314,1.314,0,0,0,296.775,329.686Z" transform="translate(-262.54 -325.807)" fill="#fff"/>
      <path id="Path_47136" data-name="Path 47136" d="M306.072,334.629v-.747a1.967,1.967,0,0,1-.718.61,2.215,2.215,0,0,1-1.078.266,2.506,2.506,0,0,1-2.133-.983,4.041,4.041,0,0,1,0-4.661,2.5,2.5,0,0,1,2.133-.991,2.223,2.223,0,0,1,1.078.266,1.975,1.975,0,0,1,.718.611v-3.706h1.078v9.336Zm0-1.9v-2.585a1.882,1.882,0,0,0-.692-.769,1.766,1.766,0,0,0-.952-.28,1.708,1.708,0,0,0-1.428.668,2.957,2.957,0,0,0,0,3.346,1.709,1.709,0,0,0,1.428.669,1.766,1.766,0,0,0,.952-.28A1.882,1.882,0,0,0,306.072,332.733Z" transform="translate(-263.929 -325.164)" fill="#fff"/>
    </g>
    <path id="Path_47137" data-name="Path 47137" d="M287.872,253.163c-6.824,0-12.354,6.96-12.354,15.544s5.532,15.541,12.354,15.541,12.352-6.957,12.352-15.541S294.693,253.163,287.872,253.163ZM288.6,270.7c0,.844-.014,1.659-.025,2.448,5.029,0,9.019.213,9.019.454s-3.995.442-9.032.456c-.016.861-.036,1.682-.055,2.449,4.427.014,7.921.21,7.921.454s-3.519.445-7.948.445c-.03.913-.066,1.735-.105,2.449,3.121.016,5.594.213,5.594.454s-2.489.442-5.649.456c-.092,1.325-.2,2.091-.316,2.091s-.221-.767-.315-2.091c-3.145,0-5.649-.213-5.649-.456s2.473-.437,5.593-.454c-.038-.714-.072-1.536-.1-2.449-4.427-.014-7.951-.21-7.951-.454s3.505-.439,7.923-.453c-.022-.767-.042-1.589-.055-2.449-5.038-.014-9.035-.213-9.035-.456s3.989-.44,9.018-.454c0-.785-.019-1.6-.025-2.448-5.635,0-10.111-.21-10.111-.454s4.473-.44,10.108-.454v-2.448c-5.635,0-10.108-.213-10.108-.454s4.476-.443,10.111-.457c0-.829.014-1.659.025-2.448-5.029-.014-9.018-.21-9.018-.454s4-.44,9.035-.454c.014-.863.033-1.681.055-2.448-4.427,0-7.923-.213-7.923-.454s3.519-.442,7.951-.456c.03-.91.064-1.734.1-2.448-3.12,0-5.593-.21-5.593-.454s2.5-.443,5.649-.454c.094-1.325.2-2.091.315-2.091s.224.766.315,2.091c3.148,0,5.649.21,5.649.454s-2.473.44-5.594.454c.039.714.075,1.538.105,2.448,4.427.014,7.948.213,7.948.456s-3.5.44-7.921.454c.02.767.039,1.585.055,2.448,5.035.014,9.032.213,9.032.454s-3.989.44-9.019.454c0,.789.02,1.607.025,2.448,5.635,0,10.11.213,10.11.457s-4.473.44-10.108.454v2.448c5.632.014,10.105.21,10.105.454S294.237,270.682,288.6,270.7Z" transform="translate(-10.663 -4.935)" fill="#fff"/>
    <path id="Path_47138" data-name="Path 47138" d="M316.517,286.977l-3.663-3.873,2.666-4.683-4.45-2.86,1.51-5.218-4.98-1.659.277-5.447-5.22-.38-.993-5.358-3.95.708c-2.943-6.017-8.575-10.094-15.018-10.094-6.52,0-12.2,4.172-15.12,10.3l-5.093-.927-.993,5.359-5.231.379.277,5.447-4.979,1.66,1.513,5.217-4.451,2.861,2.661,4.694-3.665,3.873,3.665,3.873-2.661,4.7,3,1.936h3.3L251,294.966l2.49-4.362-3.425-3.627,3.425-3.613L251,279l4.15-2.664-1.408-4.852,4.638-1.552-.252-5.057,4.861-.351.918-4.979,2.955.534a21.984,21.984,0,0,0-1.367,7.679,19.323,19.323,0,0,0,1.66,8.382,19.982,19.982,0,0,1-4.332,5.61,25.252,25.252,0,0,1-6.885,4.337l-.553.166-.069.584a3.67,3.67,0,0,0,1.989,3.953c.349.13,2.155,1,3.749,1.768,1.729.83,3.361,1.615,3.853,1.815a12.9,12.9,0,0,0,4.822,1.023,8.173,8.173,0,0,0,4.727-1.4,17.431,17.431,0,0,0,3.873-3.6c1.339,1.427,2.717,2.4,4.382,2.4h0c1.646,0,3.013-.949,4.338-2.352a17.485,17.485,0,0,0,4.243,2.766,7.811,7.811,0,0,0,3.355.733,11.868,11.868,0,0,0,6.13-1.936c.454-.277,1.936-1.322,3.508-2.426,1.447-1.021,3.09-2.177,3.414-2.366a3.667,3.667,0,0,0,1.319-4.224l-.16-.553-.583-.072a25.18,25.18,0,0,1-7.489-3.14,15.2,15.2,0,0,1-2.92-2.282,18.909,18.909,0,0,0,2.044-9.17,21.932,21.932,0,0,0-1.466-7.906l1.785-.321.918,4.979,4.858.351-.249,5.057,4.639,1.552-1.408,4.852L313.136,279l-2.489,4.362,3.427,3.613-3.413,3.621,2.49,4.363-3.931,2.528h3.3l3-1.936-2.666-4.686Zm-43.082,5.561c-1.984,1.383-4.78,1.444-7.868.194-.44-.18-2.2-1.026-3.751-1.773-2.158-1.038-3.5-1.679-3.89-1.826a1.805,1.805,0,0,1-.866-1.555,30.28,30.28,0,0,0,6.891-4.445,20.348,20.348,0,0,0,4.2-5.139,27.178,27.178,0,0,0,2.827,3.663l.033.038,1.029,1.14c.794.869,1.613,1.768,2.39,2.734.476.589.935,1.189,1.383,1.77l.614.8.069.089c.208.276.412.528.617.783h.014a15.444,15.444,0,0,1-3.693,3.535Zm26.446-11.779A30.1,30.1,0,0,0,307.4,284a1.805,1.805,0,0,1-.609,1.679c-.363.21-1.58,1.066-3.541,2.446-1.411.993-3.007,2.119-3.413,2.368-2.846,1.742-5.613,2.135-7.793,1.106A15.793,15.793,0,0,1,288.2,289.1l.02-.023c.213-.276.432-.553.647-.829.023-.025.042-.053.061-.077l.65-.83c.446-.581.907-1.184,1.383-1.773.775-.965,1.6-1.865,2.39-2.733l.133-.147.226-.252.178-.194c.13-.143.257-.276.387-.429l.058-.066c.125-.138.249-.277.371-.421l.1-.11a27.412,27.412,0,0,0,2.111-2.711,16.51,16.51,0,0,0,2.966,2.262Zm-3.743-4.4-.166.276a21.351,21.351,0,0,1-2.321,3.187l-.016.02c-.163.191-.329.381-.5.569l-.047.053c-.166.185-.332.373-.5.553l-.019.022-.531.584-.463.506c-.664.733-1.341,1.494-2,2.31-.446.553-.872,1.106-1.286,1.659l-.125.16-.02.025-.412.536-.083.108-.379.484-.069.091c-.3.379-.6.745-.89,1.084l-.02.023c-1.22,1.416-2.382,2.406-3.6,2.406s-2.42-1.026-3.667-2.489l-.108-.13c-.127-.152-.257-.307-.385-.468l-.083-.1-.31-.39-.113-.144-.307-.4-.1-.127-.4-.521c-.45-.589-.918-1.2-1.408-1.8-.808-1.007-1.659-1.936-2.459-2.816a25.8,25.8,0,0,1-4.406-5.87l-.15-.3a17.614,17.614,0,0,1-1.521-7.7c0-9.859,6.915-17.881,15.419-17.881s15.417,8.022,15.417,17.881a17.024,17.024,0,0,1-1.981,8.6Z" transform="translate(-5.49 -3.999)" fill="#fff"/>
  </g>
</svg>
