<svg xmlns="http://www.w3.org/2000/svg" width="156.211" height="84" viewBox="0 0 156.211 84">
  <g id="MS_gold_logo" transform="translate(-57.24 -145.521)">
    <g id="MS_logo" data-name="MS + logo" transform="translate(130.202 211.747)">
      <path id="Path_40452" data-name="Path 40452" d="M95.018,233l-.5,1.4H94.49a13.434,13.434,0,0,0-.473-1.382l-2.671-6.7H88.736v10.651h1.723v-6.548c0-.4-.009-.893-.027-1.451-.008-.283-.04-.51-.049-.682h.038c.088.4.178.706.244.911l3.2,7.77h1.2l3.177-7.839a6.908,6.908,0,0,0,.22-.842h.037c-.042.776-.076,1.485-.081,1.912v6.768h1.837V226.32H97.755Z" transform="translate(-65.634 -222.763)" fill="#0d0d0d"/>
      <path id="Path_40453" data-name="Path 40453" d="M100.2,236.563H102v-7.632h-1.8v7.632Z" transform="translate(-63.842 -222.355)" fill="#0d0d0d"/>
      <path id="Path_40454" data-name="Path 40454" d="M101.141,226.125a1.085,1.085,0,0,0-.765.3,1,1,0,0,0-.32.749.963.963,0,0,0,.317.734,1.094,1.094,0,0,0,.769.293,1.106,1.106,0,0,0,.772-.293.958.958,0,0,0,.32-.734,1.008,1.008,0,0,0-.312-.74,1.07,1.07,0,0,0-.78-.309" transform="translate(-63.865 -222.794)" fill="#0d0d0d"/>
      <path id="Path_40455" data-name="Path 40455" d="M107.944,228.88a4.951,4.951,0,0,0-1-.108,4.43,4.43,0,0,0-2.183.525,3.537,3.537,0,0,0-1.441,1.481,4.709,4.709,0,0,0-.495,2.193,4.049,4.049,0,0,0,.481,1.966,3.37,3.37,0,0,0,1.343,1.359,4,4,0,0,0,1.963.477,4.3,4.3,0,0,0,2.166-.508l.023-.014v-1.644l-.075.054a3.376,3.376,0,0,1-.879.458,2.64,2.64,0,0,1-.86.167,2.209,2.209,0,0,1-1.68-.654,2.549,2.549,0,0,1-.62-1.815,2.644,2.644,0,0,1,.645-1.863,2.2,2.2,0,0,1,1.685-.7,2.875,2.875,0,0,1,1.709.6l.075.054v-1.733l-.023-.014a2.981,2.981,0,0,0-.831-.281" transform="translate(-63.434 -222.38)" fill="#0d0d0d"/>
      <path id="Path_40456" data-name="Path 40456" d="M112.87,228.816a1.837,1.837,0,0,0-1.2.43,2.43,2.43,0,0,0-.691,1.024h-.019v-1.321h-1.8v7.632h1.8v-3.9a2.719,2.719,0,0,1,.447-1.621,1.371,1.371,0,0,1,1.161-.614,2.142,2.142,0,0,1,.54.08,1.39,1.39,0,0,1,.419.169l.075.056v-1.811l-.029-.013a1.867,1.867,0,0,0-.7-.106" transform="translate(-62.443 -222.373)" fill="#0d0d0d"/>
      <path id="Path_40457" data-name="Path 40457" d="M117.132,228.772a3.984,3.984,0,0,0-2.97,1.1,4.106,4.106,0,0,0-1.074,2.992,3.9,3.9,0,0,0,1.048,2.857,3.8,3.8,0,0,0,2.813,1.056,3.881,3.881,0,0,0,2.912-1.111,4.1,4.1,0,0,0,1.073-2.963,4,4,0,0,0-1.007-2.878,3.707,3.707,0,0,0-2.795-1.049m1.428,5.877a1.821,1.821,0,0,1-1.509.637,1.93,1.93,0,0,1-1.546-.649,2.762,2.762,0,0,1-.556-1.836,2.872,2.872,0,0,1,.556-1.883,1.9,1.9,0,0,1,1.532-.659,1.869,1.869,0,0,1,1.49.63,2.808,2.808,0,0,1,.545,1.868,3,3,0,0,1-.512,1.892" transform="translate(-61.829 -222.38)" fill="#0d0d0d"/>
      <path id="Path_40458" data-name="Path 40458" d="M123.738,232.11a3.9,3.9,0,0,1-1.078-.561.783.783,0,0,1-.217-.587.656.656,0,0,1,.276-.545,1.236,1.236,0,0,1,.772-.217,3.177,3.177,0,0,1,.921.141,2.948,2.948,0,0,1,.8.373l.075.05V229.1l-.029-.013a4.017,4.017,0,0,0-.816-.228,5.024,5.024,0,0,0-.9-.093,3.284,3.284,0,0,0-2.105.651,2.078,2.078,0,0,0-.82,1.694,2.356,2.356,0,0,0,.177.946,1.9,1.9,0,0,0,.543.71,4.722,4.722,0,0,0,1.1.617,8.235,8.235,0,0,1,.919.429,1.283,1.283,0,0,1,.4.332.749.749,0,0,1,.112.432c0,.513-.384.762-1.174.762a3.207,3.207,0,0,1-.994-.181,3.734,3.734,0,0,1-1.017-.516l-.075-.054v1.751l.028.013a4.517,4.517,0,0,0,.963.3,5.2,5.2,0,0,0,1.029.119,3.486,3.486,0,0,0,2.223-.654,2.116,2.116,0,0,0,.828-1.734,2,2,0,0,0-.445-1.311,3.81,3.81,0,0,0-1.513-.963" transform="translate(-60.653 -222.38)" fill="#0d0d0d"/>
      <path id="Path_40459" data-name="Path 40459" d="M129.733,228.772a3.988,3.988,0,0,0-2.971,1.1,4.11,4.11,0,0,0-1.073,2.992,3.891,3.891,0,0,0,1.049,2.857,3.8,3.8,0,0,0,2.812,1.056,3.881,3.881,0,0,0,2.912-1.111,4.1,4.1,0,0,0,1.073-2.963,4,4,0,0,0-1.007-2.878,3.708,3.708,0,0,0-2.795-1.049m1.428,5.877a1.821,1.821,0,0,1-1.509.637,1.93,1.93,0,0,1-1.546-.649,2.762,2.762,0,0,1-.556-1.836,2.872,2.872,0,0,1,.556-1.883,1.9,1.9,0,0,1,1.532-.659,1.869,1.869,0,0,1,1.49.63,2.808,2.808,0,0,1,.545,1.868,3,3,0,0,1-.512,1.892" transform="translate(-59.861 -222.38)" fill="#0d0d0d"/>
      <path id="Path_40460" data-name="Path 40460" d="M142.025,230.908v-1.464h-1.819v-2.277l-.061.018-1.708.523-.034.01v1.725H135.71v-.961a1.526,1.526,0,0,1,.3-1.019,1.047,1.047,0,0,1,.832-.34,1.939,1.939,0,0,1,.79.179l.067.03v-1.542l-.031-.012a3.1,3.1,0,0,0-1.009-.134,2.968,2.968,0,0,0-1.433.343,2.441,2.441,0,0,0-.983.972,2.881,2.881,0,0,0-.349,1.426v1.057h-1.266v1.464h1.266v6.168h1.818v-6.168H138.4v3.92c0,1.614.762,2.433,2.264,2.433a3.706,3.706,0,0,0,.771-.086A2.087,2.087,0,0,0,142,237l.024-.014V235.5l-.074.05a1.238,1.238,0,0,1-.365.16,1.4,1.4,0,0,1-.358.061.975.975,0,0,1-.775-.282,1.519,1.519,0,0,1-.246-.98v-3.6Z" transform="translate(-58.777 -222.868)" fill="#0d0d0d"/>
      <rect id="Rectangle_1975" data-name="Rectangle 1975" width="8.446" height="8.446" transform="translate(0.002)" fill="#ff501c"/>
      <rect id="Rectangle_1976" data-name="Rectangle 1976" width="8.446" height="8.446" transform="translate(9.326)" fill="#5bb932"/>
      <rect id="Rectangle_1977" data-name="Rectangle 1977" width="8.446" height="8.446" transform="translate(0 9.328)" fill="#009eda"/>
      <rect id="Rectangle_1978" data-name="Rectangle 1978" width="8.446" height="8.446" transform="translate(9.326 9.328)" fill="#ffb600"/>
    </g>
    <g id="App_Development" data-name="App Development" transform="translate(109.245 183.888)">
      <path id="Path_40414" data-name="Path 40414" d="M197.269,199.065l-.681,2.064h-.877l2.229-6.562h1.022l2.24,6.562H200.3l-.7-2.064Zm2.152-.662-.643-1.889c-.146-.428-.243-.817-.34-1.2h-.02c-.1.389-.2.789-.331,1.189l-.643,1.9Z" transform="translate(-195.711 -194.217)" fill="#8d6a02"/>
      <path id="Path_40415" data-name="Path 40415" d="M202.966,198.182c0-.6-.019-1.091-.038-1.539h.769l.038.809h.02a1.854,1.854,0,0,1,1.675-.916,2.135,2.135,0,0,1,1.995,2.4,2.23,2.23,0,0,1-2.142,2.531,1.653,1.653,0,0,1-1.451-.74h-.02v2.56h-.847Zm.847,1.256a1.925,1.925,0,0,0,.04.35,1.321,1.321,0,0,0,1.286,1c.9,0,1.431-.74,1.431-1.82,0-.945-.5-1.753-1.4-1.753a1.369,1.369,0,0,0-1.295,1.062,1.389,1.389,0,0,0-.058.35Z" transform="translate(-196.541 -194.443)" fill="#8d6a02"/>
      <path id="Path_40416" data-name="Path 40416" d="M209.225,198.182c0-.6-.019-1.091-.039-1.539h.769l.04.809h.019a1.855,1.855,0,0,1,1.675-.916,2.136,2.136,0,0,1,2,2.4,2.23,2.23,0,0,1-2.142,2.531,1.656,1.656,0,0,1-1.452-.74h-.019v2.56h-.847Zm.847,1.256a1.853,1.853,0,0,0,.04.35,1.321,1.321,0,0,0,1.285,1c.905,0,1.431-.74,1.431-1.82,0-.945-.5-1.753-1.4-1.753a1.368,1.368,0,0,0-1.295,1.062,1.388,1.388,0,0,0-.059.35Z" transform="translate(-197.26 -194.443)" fill="#8d6a02"/>
      <path id="Path_40417" data-name="Path 40417" d="M215.488,194.171h.858v6.913h-.858Z" transform="translate(-197.985 -194.171)" fill="#8d6a02"/>
      <path id="Path_40418" data-name="Path 40418" d="M219.024,195.091a.531.531,0,0,1-1.061,0,.523.523,0,0,1,.535-.535A.508.508,0,0,1,219.024,195.091Zm-.954,6.037v-4.713h.858v4.713Z" transform="translate(-198.269 -194.215)" fill="#8d6a02"/>
      <path id="Path_40419" data-name="Path 40419" d="M223.974,201.182a3.158,3.158,0,0,1-1.353.273,2.239,2.239,0,0,1-2.348-2.4,2.4,2.4,0,0,1,2.533-2.5,2.85,2.85,0,0,1,1.188.243l-.2.662a1.985,1.985,0,0,0-.992-.224,1.776,1.776,0,0,0-.029,3.544,2.43,2.43,0,0,0,1.051-.234Z" transform="translate(-198.535 -194.444)" fill="#8d6a02"/>
      <path id="Path_40420" data-name="Path 40420" d="M228.148,201.356l-.067-.594h-.029a1.755,1.755,0,0,1-1.442.7,1.343,1.343,0,0,1-1.442-1.353c0-1.139,1.012-1.762,2.835-1.752v-.1a.972.972,0,0,0-1.072-1.09,2.351,2.351,0,0,0-1.228.35l-.193-.565a2.914,2.914,0,0,1,1.547-.42c1.442,0,1.792.984,1.792,1.928v1.762a6.631,6.631,0,0,0,.078,1.129Zm-.126-2.4c-.935-.02-2,.146-2,1.061a.758.758,0,0,0,.809.818,1.174,1.174,0,0,0,1.139-.789.892.892,0,0,0,.049-.273Z" transform="translate(-199.097 -194.443)" fill="#8d6a02"/>
      <path id="Path_40421" data-name="Path 40421" d="M231.851,195.128v1.353h1.227v.652h-1.227v2.542c0,.584.166.915.643.915a1.912,1.912,0,0,0,.5-.058l.04.643a2.108,2.108,0,0,1-.761.117,1.187,1.187,0,0,1-.925-.36,1.746,1.746,0,0,1-.33-1.227v-2.571h-.731v-.652h.731v-1.129Z" transform="translate(-199.685 -194.281)" fill="#8d6a02"/>
      <path id="Path_40422" data-name="Path 40422" d="M235.469,195.091a.531.531,0,0,1-1.061,0,.523.523,0,0,1,.536-.535A.508.508,0,0,1,235.469,195.091Zm-.954,6.037v-4.713h.858v4.713Z" transform="translate(-200.16 -194.215)" fill="#8d6a02"/>
      <path id="Path_40423" data-name="Path 40423" d="M241.324,198.961a2.3,2.3,0,0,1-2.346,2.5,2.24,2.24,0,0,1-2.259-2.424,2.3,2.3,0,0,1,2.336-2.5A2.232,2.232,0,0,1,241.324,198.961Zm-3.739.049c0,1.032.595,1.811,1.431,1.811.818,0,1.432-.769,1.432-1.83,0-.8-.4-1.812-1.412-1.812S237.585,198.114,237.585,199.01Z" transform="translate(-200.425 -194.443)" fill="#8d6a02"/>
      <path id="Path_40424" data-name="Path 40424" d="M243.138,197.918c0-.486-.011-.886-.04-1.275h.76l.049.779h.019a1.735,1.735,0,0,1,1.558-.886c.653,0,1.667.389,1.667,2.006v2.813h-.858V198.64c0-.76-.281-1.392-1.09-1.392a1.218,1.218,0,0,0-1.15.876,1.251,1.251,0,0,0-.058.4v2.833h-.857Z" transform="translate(-201.159 -194.443)" fill="#8d6a02"/>
      <path id="Path_40425" data-name="Path 40425" d="M251.613,194.648a12.125,12.125,0,0,1,1.8-.136,3.761,3.761,0,0,1,2.659.818,3.024,3.024,0,0,1,.925,2.356,3.471,3.471,0,0,1-.945,2.551,4.038,4.038,0,0,1-2.9.944,13.692,13.692,0,0,1-1.539-.078Zm.847,5.8a5.353,5.353,0,0,0,.858.049,2.522,2.522,0,0,0,2.793-2.784,2.341,2.341,0,0,0-2.659-2.532,4.8,4.8,0,0,0-.992.088Z" transform="translate(-202.138 -194.21)" fill="#8d6a02"/>
      <path id="Path_40426" data-name="Path 40426" d="M259.337,199.156a1.511,1.511,0,0,0,1.617,1.635,3.1,3.1,0,0,0,1.3-.243l.147.613a3.82,3.82,0,0,1-1.567.292,2.189,2.189,0,0,1-2.318-2.375,2.289,2.289,0,0,1,2.211-2.542,2,2,0,0,1,1.948,2.221,3.605,3.605,0,0,1-.029.4Zm2.513-.613a1.221,1.221,0,0,0-1.188-1.393,1.421,1.421,0,0,0-1.315,1.393Z" transform="translate(-202.932 -194.443)" fill="#8d6a02"/>
      <path id="Path_40427" data-name="Path 40427" d="M264.67,196.657l.927,2.649a12.145,12.145,0,0,1,.379,1.207H266c.107-.389.243-.779.4-1.207l.916-2.649h.9l-1.85,4.713h-.82l-1.79-4.713Z" transform="translate(-203.535 -194.457)" fill="#8d6a02"/>
      <path id="Path_40428" data-name="Path 40428" d="M270.14,199.156a1.509,1.509,0,0,0,1.616,1.635,3.1,3.1,0,0,0,1.305-.243l.145.613a3.814,3.814,0,0,1-1.568.292,2.188,2.188,0,0,1-2.316-2.375,2.288,2.288,0,0,1,2.209-2.542,2,2,0,0,1,1.949,2.221,3.026,3.026,0,0,1-.03.4Zm2.512-.613a1.219,1.219,0,0,0-1.188-1.393,1.42,1.42,0,0,0-1.313,1.393Z" transform="translate(-204.175 -194.443)" fill="#8d6a02"/>
      <path id="Path_40429" data-name="Path 40429" d="M275.217,194.171h.858v6.913h-.858Z" transform="translate(-204.853 -194.171)" fill="#8d6a02"/>
      <path id="Path_40430" data-name="Path 40430" d="M282.035,198.961a2.3,2.3,0,0,1-2.346,2.5,2.24,2.24,0,0,1-2.259-2.424,2.3,2.3,0,0,1,2.336-2.5A2.232,2.232,0,0,1,282.035,198.961Zm-3.739.049c0,1.032.595,1.811,1.431,1.811.818,0,1.432-.769,1.432-1.83,0-.8-.4-1.812-1.412-1.812S278.3,198.114,278.3,199.01Z" transform="translate(-205.107 -194.443)" fill="#8d6a02"/>
      <path id="Path_40431" data-name="Path 40431" d="M283.847,198.182c0-.6-.02-1.091-.038-1.539h.769l.038.809h.02a1.853,1.853,0,0,1,1.675-.916,2.135,2.135,0,0,1,1.995,2.4,2.23,2.23,0,0,1-2.142,2.531,1.653,1.653,0,0,1-1.451-.74h-.02v2.56h-.847Zm.847,1.256a1.913,1.913,0,0,0,.04.35,1.321,1.321,0,0,0,1.286,1c.9,0,1.431-.74,1.431-1.82,0-.945-.5-1.753-1.4-1.753a1.368,1.368,0,0,0-1.295,1.062,1.389,1.389,0,0,0-.058.35Z" transform="translate(-205.84 -194.443)" fill="#8d6a02"/>
      <path id="Path_40432" data-name="Path 40432" d="M290.106,197.918c0-.486-.008-.886-.038-1.275h.751l.038.759h.029a1.627,1.627,0,0,1,1.48-.866,1.393,1.393,0,0,1,1.335.945h.019a1.959,1.959,0,0,1,.526-.614,1.612,1.612,0,0,1,1.043-.331c.624,0,1.549.409,1.549,2.045v2.775H296v-2.667c0-.905-.33-1.451-1.022-1.451a1.11,1.11,0,0,0-1.012.78,1.441,1.441,0,0,0-.067.428v2.911h-.839v-2.823c0-.75-.33-1.3-.983-1.3a1.275,1.275,0,0,0-1.128,1.276v2.843h-.839Z" transform="translate(-206.561 -194.443)" fill="#8d6a02"/>
      <path id="Path_40433" data-name="Path 40433" d="M299.718,199.156a1.511,1.511,0,0,0,1.616,1.635,3.1,3.1,0,0,0,1.305-.243l.147.613a3.819,3.819,0,0,1-1.567.292,2.189,2.189,0,0,1-2.319-2.375,2.289,2.289,0,0,1,2.211-2.542,2,2,0,0,1,1.949,2.221,3.393,3.393,0,0,1-.03.4Zm2.513-.613a1.221,1.221,0,0,0-1.188-1.393,1.421,1.421,0,0,0-1.315,1.393Z" transform="translate(-207.575 -194.443)" fill="#8d6a02"/>
      <path id="Path_40434" data-name="Path 40434" d="M304.792,197.918c0-.486-.011-.886-.04-1.275h.76l.049.779h.019a1.735,1.735,0,0,1,1.558-.886c.654,0,1.667.389,1.667,2.006v2.813h-.858V198.64c0-.76-.281-1.392-1.09-1.392a1.218,1.218,0,0,0-1.15.876,1.249,1.249,0,0,0-.057.4v2.833h-.858Z" transform="translate(-208.249 -194.443)" fill="#8d6a02"/>
      <path id="Path_40435" data-name="Path 40435" d="M311.864,195.128v1.353h1.226v.652h-1.226v2.542c0,.584.165.915.642.915a1.91,1.91,0,0,0,.5-.058l.038.643a2.1,2.1,0,0,1-.759.117,1.187,1.187,0,0,1-.925-.36,1.746,1.746,0,0,1-.332-1.227v-2.571H310.3v-.652h.729v-1.129Z" transform="translate(-208.885 -194.281)" fill="#8d6a02"/>
    </g>
    <g id="Partner" transform="translate(147.579 163.189)">
      <path id="Path_40445" data-name="Path 40445" d="M66.91,192.676a4.565,4.565,0,0,1-1.534,3.586,5.833,5.833,0,0,1-4.023,1.362h-2.02v5.8h-1.8V188.1h4.211a5.545,5.545,0,0,1,3.81,1.2,4.279,4.279,0,0,1,1.352,3.372m-1.881.1q0-3.046-3.591-3.045H59.334v6.284h1.881a4.244,4.244,0,0,0,2.832-.84,2.978,2.978,0,0,0,.983-2.4" transform="translate(-57.538 -188.102)" fill="#0d0d0d"/>
      <path id="Path_40446" data-name="Path 40446" d="M78.814,204.577H77.062v-1.71h-.043a3.966,3.966,0,0,1-5.9,1.116,2.965,2.965,0,0,1-.951-2.314q0-3.056,3.612-3.569l3.281-.46q0-2.779-2.255-2.779a5.413,5.413,0,0,0-3.569,1.336v-1.8a5.364,5.364,0,0,1,1.645-.7,7.577,7.577,0,0,1,2.074-.337q3.858,0,3.858,4.094Zm-1.753-5.536-2.651.374a3.91,3.91,0,0,0-1.9.646,1.809,1.809,0,0,0-.545,1.47,1.641,1.641,0,0,0,.587,1.319,2.253,2.253,0,0,0,1.507.5,2.806,2.806,0,0,0,2.154-.919,3.254,3.254,0,0,0,.85-2.3Z" transform="translate(-60.296 -189.251)" fill="#0d0d0d"/>
      <path id="Path_40447" data-name="Path 40447" d="M90.46,195.428a2.348,2.348,0,0,0-3.228.743,5.065,5.065,0,0,0-.727,2.848V204.6H84.753V193.653h1.753v2.255h.043a3.862,3.862,0,0,1,1.122-1.79,2.584,2.584,0,0,1,1.742-.657,2.856,2.856,0,0,1,1.047.15Z" transform="translate(-63.481 -189.272)" fill="#0d0d0d"/>
      <path id="Path_40448" data-name="Path 40448" d="M100.717,203.64a3.356,3.356,0,0,1-1.645.353q-2.865,0-2.865-3.228v-6.476H94.326V192.8h1.881v-2.672l1.753-.567V192.8h2.757v1.485H97.96v6.177a2.531,2.531,0,0,0,.374,1.566,1.515,1.515,0,0,0,1.251.465,1.863,1.863,0,0,0,1.133-.353Z" transform="translate(-65.569 -188.422)" fill="#0d0d0d"/>
      <path id="Path_40449" data-name="Path 40449" d="M114.721,204.577h-1.753v-6.241q0-3.473-2.544-3.474a2.782,2.782,0,0,0-2.165.978,3.613,3.613,0,0,0-.871,2.5v6.241h-1.753V193.633h1.753v1.817h.043a3.931,3.931,0,0,1,3.591-2.084,3.326,3.326,0,0,1,2.752,1.176,5.2,5.2,0,0,1,.946,3.335Z" transform="translate(-68.039 -189.251)" fill="#0d0d0d"/>
      <path id="Path_40450" data-name="Path 40450" d="M129.26,199.543h-7.727a4.074,4.074,0,0,0,.978,2.827,3.415,3.415,0,0,0,2.592.978,5.363,5.363,0,0,0,3.387-1.2v1.635a6.256,6.256,0,0,1-3.8,1.058,4.585,4.585,0,0,1-3.654-1.513,6.163,6.163,0,0,1-1.315-4.184,6.642,6.642,0,0,1,.657-2.966,5.021,5.021,0,0,1,1.811-2.079,4.67,4.67,0,0,1,2.565-.737,4.143,4.143,0,0,1,3.318,1.384,5.749,5.749,0,0,1,1.192,3.874Zm-1.8-1.485a3.628,3.628,0,0,0-.732-2.357,2.482,2.482,0,0,0-2-.839,2.824,2.824,0,0,0-2.084.876,4.1,4.1,0,0,0-1.09,2.319Z" transform="translate(-71.113 -189.251)" fill="#0d0d0d"/>
      <path id="Path_40451" data-name="Path 40451" d="M140.213,195.428a2.348,2.348,0,0,0-3.228.743,5.065,5.065,0,0,0-.727,2.848V204.6h-1.753V193.653h1.753v2.255h.043a3.863,3.863,0,0,1,1.123-1.79,2.584,2.584,0,0,1,1.742-.657,2.856,2.856,0,0,1,1.048.15Z" transform="translate(-74.341 -189.272)" fill="#0d0d0d"/>
    </g>
    <g id="Microsoft" transform="translate(57.24 162.077)">
      <path id="Path_40436" data-name="Path 40436" d="M50.112,176.428h-1.8V166.136q0-1.218.15-2.971h-.043a9.584,9.584,0,0,1-.46,1.486l-5.226,11.777h-.876l-5.237-11.692a8.83,8.83,0,0,1-.46-1.571h-.042q.084.919.085,2.992v10.271H34.477V161.1h2.372l4.7,10.686a13.548,13.548,0,0,1,.694,1.839h.075q.535-1.475.738-1.881l4.8-10.644h2.255Z" transform="translate(-34.477 -159.991)" fill="#0d0d0d"/>
      <path id="Path_40437" data-name="Path 40437" d="M60.6,161.374a1.081,1.081,0,0,1-.342.817,1.19,1.19,0,0,1-1.625.011,1.09,1.09,0,0,1-.331-.828,1.1,1.1,0,0,1,.326-.8,1.089,1.089,0,0,1,.818-.337,1.119,1.119,0,0,1,.822.331,1.1,1.1,0,0,1,.331.8m-.3,14.865H58.55V165.3H60.3Z" transform="translate(-39.678 -159.803)" fill="#0d0d0d"/>
      <path id="Path_40438" data-name="Path 40438" d="M71.842,177.074a5.691,5.691,0,0,1-3,.769,5.274,5.274,0,0,1-2.687-.689A4.751,4.751,0,0,1,64.3,175.2a5.985,5.985,0,0,1-.663-2.832,6.09,6.09,0,0,1,1.555-4.36,5.43,5.43,0,0,1,4.141-1.645,5.546,5.546,0,0,1,2.533.556v1.8a4.489,4.489,0,0,0-2.608-.855,3.5,3.5,0,0,0-2.762,1.213,4.583,4.583,0,0,0-1.063,3.136,4.327,4.327,0,0,0,1.01,3.024,3.477,3.477,0,0,0,2.709,1.112,4.425,4.425,0,0,0,2.693-.94Z" transform="translate(-40.842 -161.14)" fill="#0d0d0d"/>
      <path id="Path_40439" data-name="Path 40439" d="M82.531,168.428a2.348,2.348,0,0,0-3.228.743,5.065,5.065,0,0,0-.727,2.848V177.6H76.824V166.653h1.753v2.255h.043a3.862,3.862,0,0,1,1.122-1.79,2.584,2.584,0,0,1,1.742-.657,2.855,2.855,0,0,1,1.047.15Z" transform="translate(-43.722 -161.16)" fill="#0d0d0d"/>
      <path id="Path_40440" data-name="Path 40440" d="M95.21,172.062a5.9,5.9,0,0,1-1.481,4.195,5.166,5.166,0,0,1-3.97,1.587,5.058,5.058,0,0,1-3.874-1.544,5.7,5.7,0,0,1-1.448-4.066,6.005,6.005,0,0,1,1.485-4.291,5.353,5.353,0,0,1,4.093-1.576,4.885,4.885,0,0,1,3.815,1.523,5.989,5.989,0,0,1,1.379,4.173m-1.8.064a4.835,4.835,0,0,0-.914-3.164,3.206,3.206,0,0,0-2.613-1.1,3.365,3.365,0,0,0-2.672,1.127,4.685,4.685,0,0,0-.983,3.18,4.448,4.448,0,0,0,.989,3.072,3.4,3.4,0,0,0,2.666,1.106,3.216,3.216,0,0,0,2.619-1.09,4.774,4.774,0,0,0,.908-3.131" transform="translate(-45.384 -161.14)" fill="#0d0d0d"/>
      <path id="Path_40441" data-name="Path 40441" d="M106.756,174.649a2.833,2.833,0,0,1-1.1,2.308,4.491,4.491,0,0,1-2.913.887,5.4,5.4,0,0,1-2.715-.663V175.3a4.413,4.413,0,0,0,2.843,1.047q2.084,0,2.084-1.528a1.339,1.339,0,0,0-.406-1.01,7.777,7.777,0,0,0-1.849-1.053,5.494,5.494,0,0,1-2.052-1.33,3.05,3.05,0,0,1,.492-4.152,4.181,4.181,0,0,1,2.768-.908,5.249,5.249,0,0,1,2.341.514v1.763a4.1,4.1,0,0,0-2.48-.78,2.156,2.156,0,0,0-1.4.428,1.352,1.352,0,0,0-.528,1.1,1.473,1.473,0,0,0,.406,1.117,6.038,6.038,0,0,0,1.678.925,6.039,6.039,0,0,1,2.19,1.389,2.69,2.69,0,0,1,.632,1.828" transform="translate(-48.788 -161.14)" fill="#0d0d0d"/>
      <path id="Path_40442" data-name="Path 40442" d="M120.921,172.062a5.9,5.9,0,0,1-1.48,4.195,5.166,5.166,0,0,1-3.97,1.587A5.058,5.058,0,0,1,111.6,176.3a5.7,5.7,0,0,1-1.448-4.066,6.005,6.005,0,0,1,1.485-4.291,5.353,5.353,0,0,1,4.093-1.576,4.885,4.885,0,0,1,3.815,1.523,5.989,5.989,0,0,1,1.379,4.173m-1.8.064a4.835,4.835,0,0,0-.914-3.164,3.206,3.206,0,0,0-2.613-1.1,3.365,3.365,0,0,0-2.672,1.127,4.685,4.685,0,0,0-.983,3.18,4.448,4.448,0,0,0,.989,3.072,3.4,3.4,0,0,0,2.666,1.106,3.216,3.216,0,0,0,2.619-1.09,4.774,4.774,0,0,0,.908-3.131" transform="translate(-50.998 -161.14)" fill="#0d0d0d"/>
      <path id="Path_40443" data-name="Path 40443" d="M131.266,161.454a2.336,2.336,0,0,0-1.165-.288q-1.839,0-1.838,2.319v1.688h2.565v1.485h-2.565v9.458h-1.753v-9.458h-1.86v-1.485h1.86V163.4a3.728,3.728,0,0,1,.983-2.693,3.314,3.314,0,0,1,2.5-1.026,3.417,3.417,0,0,1,1.272.193Z" transform="translate(-54.164 -159.68)" fill="#0d0d0d"/>
      <path id="Path_40444" data-name="Path 40444" d="M139.475,176.64a3.355,3.355,0,0,1-1.645.353q-2.865,0-2.865-3.228v-6.476h-1.881V165.8h1.881v-2.672l1.753-.567V165.8h2.757v1.485h-2.757v6.177a2.531,2.531,0,0,0,.374,1.566,1.515,1.515,0,0,0,1.251.465,1.863,1.863,0,0,0,1.133-.353Z" transform="translate(-56.004 -160.31)" fill="#0d0d0d"/>
    </g>
    <g id="Gold" transform="translate(57.24 145.521)">
      <path id="Path_40410" data-name="Path 40410" d="M180.3,204.788a9.924,9.924,0,0,1-3.274.585A5.007,5.007,0,0,1,171.556,200c.016-3.181,2.2-5.506,5.775-5.506a6.589,6.589,0,0,1,2.656.49l-.331,1.123a5.539,5.539,0,0,0-2.358-.459,3.987,3.987,0,0,0-4.286,4.288c0,2.7,1.629,4.3,4.112,4.3a4.5,4.5,0,0,0,1.836-.285v-3.179h-2.168v-1.107H180.3Z" transform="translate(-171.556 -194.031)" fill="#8d6a02"/>
      <path id="Path_40411" data-name="Path 40411" d="M186.167,200.476a3.741,3.741,0,0,1-3.812,4.065,3.64,3.64,0,0,1-3.671-3.938,3.74,3.74,0,0,1,3.8-4.066A3.626,3.626,0,0,1,186.167,200.476Zm-6.074.079c0,1.677.963,2.942,2.325,2.942,1.329,0,2.325-1.25,2.325-2.974,0-1.3-.648-2.943-2.295-2.943S180.093,199.1,180.093,200.555Z" transform="translate(-168.435 -193.136)" fill="#8d6a02"/>
      <path id="Path_40412" data-name="Path 40412" d="M185.107,194.171H186.5V205.4h-1.393Z" transform="translate(-165.623 -194.171)" fill="#8d6a02"/>
      <path id="Path_40413" data-name="Path 40413" d="M194.484,194.171v9.255c0,.68.017,1.455.063,1.977H193.3l-.063-1.329h-.03a2.834,2.834,0,0,1-2.611,1.5c-1.851,0-3.274-1.566-3.274-3.891-.016-2.547,1.566-4.114,3.434-4.114a2.564,2.564,0,0,1,2.309,1.17h.03v-4.571Zm-1.392,6.692a2.453,2.453,0,0,0-.062-.585,2.047,2.047,0,0,0-2.01-1.613c-1.439,0-2.293,1.265-2.293,2.958,0,1.55.759,2.831,2.263,2.831a2.094,2.094,0,0,0,2.04-1.661,2.418,2.418,0,0,0,.062-.6Z" transform="translate(-164.654 -194.171)" fill="#8d6a02"/>
    </g>
  </g>
</svg>
