<svg id="NHS_logo" xmlns="http://www.w3.org/2000/svg" width="136.906" height="64.006" viewBox="0 0 136.906 64.006">
  <path id="Path_37578" data-name="Path 37578" d="M7.782,35.415v4.912H2.594V35.416H0V47.594H2.594V42.245H7.783v5.349h2.594V35.415Z" transform="translate(0 -4.864)" fill="#0d0d0d"/>
  <path id="Path_37579" data-name="Path 37579" d="M19.536,48.27a5.172,5.172,0,0,1-3.675-1.22,4.489,4.489,0,0,1-1.328-3.43,5.518,5.518,0,0,1,.5-2.383,4.12,4.12,0,0,1,1.482-1.715,4.356,4.356,0,0,1,2.471-.638,4.2,4.2,0,0,1,3.459,1.337,6.522,6.522,0,0,1,1.08,4.068H16.91a2.4,2.4,0,0,0,.8,1.656,2.878,2.878,0,0,0,1.915.612,6.012,6.012,0,0,0,1.6-.232,8.064,8.064,0,0,0,1.544-.67v1.889a6.622,6.622,0,0,1-3.24.726Zm-.431-7.677a2.094,2.094,0,0,0-1.513.552,2.354,2.354,0,0,0-.68,1.57h4.227a2.477,2.477,0,0,0-.587-1.542,1.779,1.779,0,0,0-1.448-.576Z" transform="translate(-1.995 -5.339)" fill="#0d0d0d"/>
  <path id="Path_37580" data-name="Path 37580" d="M32.784,46.733H32.75a3.02,3.02,0,0,1-1.235,1.133,3.593,3.593,0,0,1-1.725.407,4.3,4.3,0,0,1-1.639-.319,2.784,2.784,0,0,1-1.235-.932,2.271,2.271,0,0,1-.462-1.423A2.558,2.558,0,0,1,27.6,43.331a6.327,6.327,0,0,1,3.52-.814h1.548v-.028a1.864,1.864,0,0,0-.526-1.482,2.537,2.537,0,0,0-1.6-.407,4.587,4.587,0,0,0-1.513.259,4.96,4.96,0,0,0-1.42.726l-.06-2.006a9.32,9.32,0,0,1,1.606-.494,8.925,8.925,0,0,1,1.725-.2,4.5,4.5,0,0,1,3.149.9,3.768,3.768,0,0,1,.958,2.907v1.858c0,.408,0,.959.035,1.686s.06,1.366.124,1.89H32.943a12.187,12.187,0,0,1-.155-1.392Zm-3.922-1.251a.963.963,0,0,0,.431.813,1.918,1.918,0,0,0,1.173.291,2.188,2.188,0,0,0,1.6-.638,2.59,2.59,0,0,0,.65-1.889v-.117H31.643c-1.885-.033-2.78.492-2.78,1.539Z" transform="translate(-3.633 -5.338)" fill="#0d0d0d"/>
  <rect id="Rectangle_840" data-name="Rectangle 840" width="2.471" height="13.079" transform="translate(33.815 29.649)" fill="#0d0d0d"/>
  <path id="Path_37581" data-name="Path 37581" d="M48.808,47.9a3.046,3.046,0,0,1-2.254-.784,2.837,2.837,0,0,1-.772-2.122V40.429H43.96V38.714h1.822v-1.8l2.471-.755v2.557h2.193v1.715H48.253v4.155a1.787,1.787,0,0,0,.278,1.1,1.025,1.025,0,0,0,.9.379,2.387,2.387,0,0,0,1.113-.234l.06,1.861a6.528,6.528,0,0,1-1.791.205" transform="translate(-6.038 -4.966)" fill="#0d0d0d"/>
  <path id="Path_37582" data-name="Path 37582" d="M58.145,40.064a1.867,1.867,0,0,0-1.639.844,3.876,3.876,0,0,0-.556,2.209v4.331H53.483V34.371h2.47V39.69h.035a3.26,3.26,0,0,1,1.235-1.046,3.888,3.888,0,0,1,1.76-.378,3.025,3.025,0,0,1,2.409.958,3.75,3.75,0,0,1,.834,2.559v5.694H59.754V42.36a3.007,3.007,0,0,0-.4-1.773,1.375,1.375,0,0,0-1.205-.523Z" transform="translate(-7.346 -4.721)" fill="#0d0d0d"/>
  <path id="Path_37583" data-name="Path 37583" d="M75.984,42.535h-.863v5.058h-2.6V35.415h4.046a7.641,7.641,0,0,1,3.025.464,2.882,2.882,0,0,1,1.452,1.163,3.619,3.619,0,0,1,.371,1.686,2.779,2.779,0,0,1-.71,1.889,3.045,3.045,0,0,1-1.945.93v.028c.556.03,1.049.5,1.421,1.366l2.007,4.651h-2.9l-1.513-3.661a5.434,5.434,0,0,0-.4-.813,1.515,1.515,0,0,0-.526-.436,1.965,1.965,0,0,0-.864-.147Zm2.748-3.6a1.324,1.324,0,0,0-.587-1.19,3.48,3.48,0,0,0-1.883-.408H75.15v3.284h.989a3.534,3.534,0,0,0,2.007-.436,1.43,1.43,0,0,0,.592-1.251Z" transform="translate(-9.961 -4.863)" fill="#0d0d0d"/>
  <path id="Path_37584" data-name="Path 37584" d="M89.986,48.27a5.172,5.172,0,0,1-3.675-1.22,4.486,4.486,0,0,1-1.328-3.43,5.53,5.53,0,0,1,.5-2.383,4.12,4.12,0,0,1,1.482-1.715,4.363,4.363,0,0,1,2.471-.638,4.2,4.2,0,0,1,3.459,1.337,6.517,6.517,0,0,1,1.08,4.068H87.328a2.406,2.406,0,0,0,.8,1.656,2.877,2.877,0,0,0,1.914.612,6.026,6.026,0,0,0,1.607-.232,8.065,8.065,0,0,0,1.544-.67v1.889a6.5,6.5,0,0,1-3.209.726Zm-.463-7.677a2.094,2.094,0,0,0-1.513.552,2.354,2.354,0,0,0-.68,1.57h4.226a2.467,2.467,0,0,0-.586-1.542,1.737,1.737,0,0,0-1.449-.576Z" transform="translate(-11.671 -5.339)" fill="#0d0d0d"/>
  <path id="Path_37585" data-name="Path 37585" d="M99.587,46.564a2.439,2.439,0,0,0,1.142-.259.876.876,0,0,0,.494-.844.818.818,0,0,0-.431-.726,4.7,4.7,0,0,0-1.359-.494,4.5,4.5,0,0,1-1.945-.9,2.173,2.173,0,0,1-.617-1.656,2.324,2.324,0,0,1,1.049-2.037,4.641,4.641,0,0,1,2.718-.756,13.58,13.58,0,0,1,2.685.32l-.155,1.774a7.491,7.491,0,0,0-1.142-.292,6.309,6.309,0,0,0-1.082-.085,2.025,2.025,0,0,0-1.081.259.808.808,0,0,0-.4.756.666.666,0,0,0,.371.581,6.509,6.509,0,0,0,1.267.466,4.178,4.178,0,0,1,2.007.989,2.363,2.363,0,0,1,.65,1.743,2.524,2.524,0,0,1-1.113,2.181,5.126,5.126,0,0,1-2.9.755,11.614,11.614,0,0,1-2.81-.379l.155-1.918a6.941,6.941,0,0,0,2.5.523Z" transform="translate(-13.305 -5.341)" fill="#0d0d0d"/>
  <path id="Path_37586" data-name="Path 37586" d="M111.464,48.27a5.173,5.173,0,0,1-3.675-1.22,4.493,4.493,0,0,1-1.328-3.43,5.519,5.519,0,0,1,.5-2.383,4.118,4.118,0,0,1,1.481-1.715,4.357,4.357,0,0,1,2.471-.638,4.2,4.2,0,0,1,3.458,1.337,6.511,6.511,0,0,1,1.08,4.068h-6.642a2.4,2.4,0,0,0,.8,1.656,2.874,2.874,0,0,0,1.914.612,6.023,6.023,0,0,0,1.605-.232,8.033,8.033,0,0,0,1.543-.67v1.889a6.5,6.5,0,0,1-3.207.726ZM111,40.593a2.1,2.1,0,0,0-1.513.552,2.359,2.359,0,0,0-.679,1.57h4.227a2.472,2.472,0,0,0-.586-1.542A1.739,1.739,0,0,0,111,40.6Z" transform="translate(-14.622 -5.339)" fill="#0d0d0d"/>
  <path id="Path_37587" data-name="Path 37587" d="M124.713,46.733h-.034a3.02,3.02,0,0,1-1.235,1.133,3.593,3.593,0,0,1-1.725.407,4.306,4.306,0,0,1-1.639-.319,2.793,2.793,0,0,1-1.235-.932,2.276,2.276,0,0,1-.463-1.423,2.56,2.56,0,0,1,1.143-2.267,6.33,6.33,0,0,1,3.52-.814h1.545v-.028a1.87,1.87,0,0,0-.525-1.482,2.479,2.479,0,0,0-1.6-.407,5.2,5.2,0,0,0-2.967.989l-.06-2.006a9.423,9.423,0,0,1,1.6-.493,8.932,8.932,0,0,1,1.725-.2,4.5,4.5,0,0,1,3.151.9A3.816,3.816,0,0,1,126.9,42.7v1.858c0,.408,0,.959.035,1.686s.061,1.366.124,1.889h-2.193a5.5,5.5,0,0,1-.15-1.395Zm-3.953-1.251a1.013,1.013,0,0,0,.4.813,1.981,1.981,0,0,0,1.172.291,2.191,2.191,0,0,0,1.605-.638,2.589,2.589,0,0,0,.649-1.889v-.117h-1.08c-1.821-.033-2.748.492-2.748,1.539Z" transform="translate(-16.259 -5.338)" fill="#0d0d0d"/>
  <path id="Path_37588" data-name="Path 37588" d="M133.315,39.089v2.036h.035a2.57,2.57,0,0,1,.431-1.018,2.978,2.978,0,0,1,.958-.871,2.4,2.4,0,0,1,1.235-.345,4.75,4.75,0,0,1,.742.057V41.3a2.66,2.66,0,0,0-1.113-.2,1.745,1.745,0,0,0-1.513.785,4.613,4.613,0,0,0-.526,2.471v3.691H131.1V39.059h2.222Z" transform="translate(-18.006 -5.342)" fill="#0d0d0d"/>
  <path id="Path_37589" data-name="Path 37589" d="M143.012,48.273a4.623,4.623,0,0,1-3.457-1.25,4.733,4.733,0,0,1-1.234-3.487,4.969,4.969,0,0,1,.555-2.384,4.064,4.064,0,0,1,1.6-1.656,4.844,4.844,0,0,1,2.472-.612,8.44,8.44,0,0,1,2.377.292l-.216,1.86a3.882,3.882,0,0,0-1.669-.319,2.352,2.352,0,0,0-1.851.785,3.009,3.009,0,0,0-.681,2.063,3.191,3.191,0,0,0,.681,2.151,2.371,2.371,0,0,0,1.883.785,3.725,3.725,0,0,0,.926-.116,9.995,9.995,0,0,0,.989-.291l.123,1.946a12.742,12.742,0,0,1-2.5.235Z" transform="translate(-18.997 -5.34)" fill="#0d0d0d"/>
  <path id="Path_37590" data-name="Path 37590" d="M153.224,40.064a1.866,1.866,0,0,0-1.638.844,3.877,3.877,0,0,0-.556,2.209v4.331h-2.469V34.371h2.471V39.69h.035a3.258,3.258,0,0,1,1.237-1.046,3.885,3.885,0,0,1,1.759-.378,3.026,3.026,0,0,1,2.409.958,3.75,3.75,0,0,1,.833,2.559v5.694h-2.471V42.36a3,3,0,0,0-.4-1.773,1.374,1.374,0,0,0-1.2-.523Z" transform="translate(-20.405 -4.721)" fill="#0d0d0d"/>
  <path id="Path_37591" data-name="Path 37591" d="M4.1,64.978,2.961,67.769H.273L5.307,55.59H8.24L13.3,67.769H10.431L9.32,64.978Zm.742-1.919H8.611L6.726,58.03H6.692Z" transform="translate(-0.037 -7.635)" fill="#0d0d0d"/>
  <path id="Path_37592" data-name="Path 37592" d="M23.457,67.062a4.191,4.191,0,0,1-1.421,1.076,3.937,3.937,0,0,1-1.725.378,3.1,3.1,0,0,1-2.409-.93A3.721,3.721,0,0,1,17.068,65V59.33h2.47v5.115a2.85,2.85,0,0,0,.4,1.744,1.448,1.448,0,0,0,1.208.524,1.868,1.868,0,0,0,1.639-.843,3.879,3.879,0,0,0,.556-2.208V59.33h2.471v8.982H23.457v-1.25Z" transform="translate(-2.343 -8.149)" fill="#0d0d0d"/>
  <path id="Path_37593" data-name="Path 37593" d="M33.9,68.073a3.046,3.046,0,0,1-2.254-.785,2.837,2.837,0,0,1-.772-2.122V60.6H29.02V58.888h1.822v-1.8l2.471-.756v2.558h2.193V60.6H33.344v4.156a1.794,1.794,0,0,0,.278,1.1,1.027,1.027,0,0,0,.9.378,2.394,2.394,0,0,0,1.113-.233l.06,1.86a6.527,6.527,0,0,1-1.791.2Z" transform="translate(-3.986 -7.737)" fill="#0d0d0d"/>
  <path id="Path_37594" data-name="Path 37594" d="M43.2,60.24a1.869,1.869,0,0,0-1.639.842,3.878,3.878,0,0,0-.556,2.208v4.331H38.541V54.546h2.471v5.318h.035a3.259,3.259,0,0,1,1.236-1.046,3.877,3.877,0,0,1,1.76-.379,3.024,3.024,0,0,1,2.409.959,3.744,3.744,0,0,1,.833,2.558v5.694h-2.47V62.535a3,3,0,0,0-.4-1.772,1.339,1.339,0,0,0-1.2-.524Z" transform="translate(-5.293 -7.492)" fill="#0d0d0d"/>
  <path id="Path_37595" data-name="Path 37595" d="M55.937,68.444a5.425,5.425,0,0,1-2.625-.611,4.382,4.382,0,0,1-1.725-1.656,4.739,4.739,0,0,1-.618-2.384,4.81,4.81,0,0,1,.647-2.5,4.539,4.539,0,0,1,1.76-1.686,5.261,5.261,0,0,1,2.564-.581,5.831,5.831,0,0,1,2.594.581,4.556,4.556,0,0,1,1.79,1.656,4.676,4.676,0,0,1,.649,2.5,4.762,4.762,0,0,1-.618,2.384,4.274,4.274,0,0,1-1.76,1.656,5.563,5.563,0,0,1-2.659.64Zm2.409-4.912a2.928,2.928,0,0,0-.618-1.889,2.433,2.433,0,0,0-3.439-.085c-.039.036-.076.075-.112.114a2.888,2.888,0,0,0-.649,1.889,3.817,3.817,0,0,0,.618,2.3,2.378,2.378,0,0,0,3.583,0,3.764,3.764,0,0,0,.619-2.326Z" transform="translate(-7 -8.107)" fill="#0d0d0d"/>
  <path id="Path_37596" data-name="Path 37596" d="M67.08,59.265V61.3h.035a2.576,2.576,0,0,1,.431-1.018,2.987,2.987,0,0,1,.958-.871,2.393,2.393,0,0,1,1.234-.344,4.748,4.748,0,0,1,.742.056v2.353a2.66,2.66,0,0,0-1.113-.2,1.748,1.748,0,0,0-1.512.785,4.613,4.613,0,0,0-.526,2.471v3.691H64.86V59.233h2.223Z" transform="translate(-8.908 -8.113)" fill="#0d0d0d"/>
  <path id="Path_37597" data-name="Path 37597" d="M75.7,54.816v2.237H73.23V54.815Zm0,12.847H73.23V58.681H75.7Z" transform="translate(-10.058 -7.529)" fill="#0d0d0d"/>
  <path id="Path_37598" data-name="Path 37598" d="M82.8,68.073a3.045,3.045,0,0,1-2.254-.785,2.837,2.837,0,0,1-.772-2.122V60.6H77.956V58.888h1.822v-1.8l2.47-.756v2.558h2.193V60.6H82.248v4.156a1.8,1.8,0,0,0,.279,1.1,1.026,1.026,0,0,0,.9.378,2.4,2.4,0,0,0,1.113-.233l.06,1.86a6.368,6.368,0,0,1-1.791.2Z" transform="translate(-10.707 -7.737)" fill="#0d0d0d"/>
  <path id="Path_37599" data-name="Path 37599" d="M88.268,70.338a1.582,1.582,0,0,0,1.208-.436,1.655,1.655,0,0,0,.431-1.163L86.261,59.3H89.01L91.3,65.865h.026L93.607,59.3h2.532l-4.016,9.97a6.179,6.179,0,0,1-1.358,2.179,3.217,3.217,0,0,1-2.193.7,7.286,7.286,0,0,1-1.725-.234L87,70.2a4.831,4.831,0,0,0,1.263.142Z" transform="translate(-11.848 -8.144)" fill="#0d0d0d"/>
  <path id="Path_37600" data-name="Path 37600" d="M59.611,2.933,58.328,6.886a10.007,10.007,0,0,0-4.431-.9c-2.128,0-3.847.321-3.847,1.919,0,2.819,7.784,1.772,7.784,7.819,0,5.492-5.131,6.917-9.8,6.917a23.383,23.383,0,0,1-6.211-1.018l1.253-4.039a10.279,10.279,0,0,0,4.927,1.133c1.662,0,4.286-.318,4.286-2.354,0-3.2-7.785-2-7.785-7.615,0-5.145,4.548-6.686,8.951-6.686a15.576,15.576,0,0,1,6.152.871M44.19,2.383,40.019,22.265H34.653l1.78-8.516H30.077L28.3,22.265H22.932L27.1,2.383h5.364L30.892,10h6.356l1.575-7.615Zm-19.065,0L20.87,22.293H14.188L9.989,8.517h-.06L7.16,22.293H2.115L6.4,2.415H13.11l4.112,13.8h.06l2.828-13.8h5.015ZM61.944,0H.368V24.706H61.944Z" transform="translate(-0.05)" fill="#015bbb"/>
</svg>
