<svg width="376" height="378" viewBox="0 0 376 378" fill="none" xmlns="http://www.w3.org/2000/svg">
<path d="M-158 -51.596V169.668L33.6207 280.302L225.241 169.668V-51.596L33.6207 -162.229L-158 -51.596Z" stroke="#2FADA9" stroke-width="0.25" stroke-miterlimit="10"/>
<path d="M247.026 -29.8118L55.4049 -140.445L-136.216 -29.8118V191.453L55.4049 302.085L247.026 191.453V-29.8118Z" stroke="#2FADA9" stroke-width="0.276" stroke-miterlimit="10"/>
<path d="M268.81 -8.02726L77.1891 -118.661L-114.432 -8.02726V213.237L77.1891 323.87L268.81 213.237V-8.02726Z" stroke="#2FADA9" stroke-width="0.302" stroke-miterlimit="10"/>
<path d="M290.594 13.7559L98.9732 -96.8768L-92.6475 13.7559V235.02L98.9732 345.654L290.594 235.02V13.7559Z" stroke="#2FADA9" stroke-width="0.328" stroke-miterlimit="10"/>
<path d="M312.377 35.5402L120.756 -75.0936L-70.8643 35.5402V256.805L120.756 367.437L312.377 256.805V35.5402Z" stroke="#2FADA9" stroke-width="0.353" stroke-miterlimit="10"/>
<path d="M334.161 57.3226L142.544 -53.3101L-49.0801 57.3226V278.587L142.544 389.221L334.161 278.587V57.3226Z" stroke="#2FADA9" stroke-width="0.379" stroke-miterlimit="10"/>
<path d="M355.946 79.1068L164.325 -31.5259L-27.2959 79.1068V300.371L164.325 411.004L355.946 300.371V79.1068Z" stroke="#2FADA9" stroke-width="0.405" stroke-miterlimit="10"/>
<path d="M377.729 100.891L186.108 -9.74268L-5.5127 100.891V322.155L186.108 432.788L377.729 322.155V100.891Z" stroke="#2FADA9" stroke-width="0.431" stroke-miterlimit="10"/>
<path d="M399.512 122.675L207.891 12.042L16.2705 122.675V343.939L207.891 454.573L399.512 343.939V122.675Z" stroke="#2FADA9" stroke-width="0.457" stroke-miterlimit="10"/>
<path d="M421.297 144.459L229.676 33.8252L38.0557 144.459V365.723L229.676 476.356L421.297 365.723V144.459Z" stroke="#2FADA9" stroke-width="0.483" stroke-miterlimit="10"/>
<path d="M443.081 166.242L251.46 55.6089L59.8398 166.242V387.507L251.46 498.14L443.081 387.507V166.242Z" stroke="#2FADA9" stroke-width="0.509" stroke-miterlimit="10"/>
<path d="M464.864 188.026L273.244 77.3931L81.623 188.026V409.29L273.244 519.924L464.864 409.29V188.026Z" stroke="#2FADA9" stroke-width="0.534" stroke-miterlimit="10"/>
<path d="M486.649 209.81L295.028 99.1763L103.407 209.81V431.074L295.028 541.707L486.649 431.074V209.81Z" stroke="#2FADA9" stroke-width="0.56" stroke-miterlimit="10"/>
<path d="M508.432 231.593L316.811 120.96L125.19 231.593V452.858L316.811 563.491L508.432 452.858V231.593Z" stroke="#2FADA9" stroke-width="0.586" stroke-miterlimit="10"/>
<path d="M530.215 253.378L338.594 142.745L146.974 253.378V474.642L338.594 585.279L530.215 474.642V253.378Z" stroke="#2FADA9" stroke-width="0.612" stroke-miterlimit="10"/>
<path d="M552 275.161L360.375 164.527L168.759 275.161V496.429L360.375 607.058L552 496.429V275.161Z" stroke="#2FADA9" stroke-width="0.638" stroke-miterlimit="10"/>
</svg>
